<svg width="512" height="512" xmlns="http://www.w3.org/2000/svg" xmlns:xlink="http://www.w3.org/1999/xlink"><g class="prefix__layer"><path d="M473.09 0v399.94L94.93 448.75l-56.02 7.23V56.02c0-15.47 6.27-29.46 16.4-39.61C65.46 6.27 79.46 0 94.93 0h378.16z" fill="#1b4332"/><path d="M94.93 0v448.75l-56.02 7.23V56.02c0-15.47 6.27-29.46 16.4-39.61C65.46 6.27 79.46 0 94.93 0z" fill="#0a3d28"/><path d="M117.7 512H94.93c-15.47 0-29.47-6.27-39.61-16.41-10.14-10.15-16.41-24.16-16.41-39.63 0-30.93 25.09-56.02 56.02-56.02H473.1V512H197.98" fill="#225f46"/><path d="M431.08 399.94v73.37H70.72v-67.89c7.32-3.51 15.54-5.48 24.21-5.48h336.15z" fill="#b7e4c7"/><path d="M431.08 399.94v19.23H94.93c-8.67 0-16.88 1.97-24.21 5.49v-19.23c7.33-3.52 15.54-5.49 24.21-5.49h336.15z" fill="#78a387"/><path d="M429.08 310.14V87.58c-24.19 0-43.79-19.61-43.79-43.79H184.74c0 24.18-19.6 43.79-43.79 43.79v222.56c24.19 0 43.79 19.6 43.79 43.79h200.55c0-24.19 19.6-43.79 43.79-43.79z" fill="#0a5e40"/><use transform="translate(25.061 11.113) scale(.39908)" x="399.32" xlink:href="#prefix__svg_13" y="230"/></g><defs><symbol id="prefix__svg_13" viewBox="0 0 299.75 293.731" xmlns="http://www.w3.org/2000/svg" xmlns:cc="http://creativecommons.org/ns#" xmlns:dc="http://purl.org/dc/elements/1.1/" xmlns:inkscape="http://www.inkscape.org/namespaces/inkscape" xmlns:rdf="http://www.w3.org/1999/02/22-rdf-syntax-ns#" xmlns:sodipodi="http://sodipodi.sourceforge.net/DTD/sodipodi-0.dtd" xmlns:svg="http://www.w3.org/2000/svg"><g id="prefix__svg_9" transform="translate(-26.135 119.504)"><path d="M86.97 75.09c7.27-4.78 14.36-8.05 31.71-14.65 10.91-5.65 26.56-3.8 34.64-14.09.81-1.24-3.55-9.85-7.94-15.71-4.2-5.59-11.74-13.18-19.86-19.98-8.09-6.77-7.54-6.47-9.5-5.28-5.78 3.51-12.47 9.08-25.84 21.56-15.23 14.21-18.81 17.26-25.88 22-3.39 2.28-10.22 5.92-13.23 7.06-1.47.56-1.91 1.02-3.02 3.23-5.57 11.04-8.32 23.27-6.99 31.13.95 5.6 4.81 11.56 8.24 12.71.79.27 2.82.43 4.52.37 13.82-4.61 21.6-20.72 33.15-28.35zm34.65-29.68c-2.14-1.93-4.22-3.68-4.6-3.9-.82-.47-1.48.14-4.35 4.03-2.16 2.93-2.78 3.11-5.23 1.49-2.38-1.57-7.6-6.8-7.6-7.61 0-.74 3.78-7.55 4.74-8.54.7-.72 2.1.14 7.18 4.44 1.92 1.62 3.75 2.9 4.08 2.83.33-.06 1.7-1.73 3.04-3.71 1.99-2.91 2.65-3.59 3.48-3.59.76 0 2.25 1.2 5.7 4.6 2.56 2.53 4.66 4.85 4.66 5.17 0 .95-3.32 6.21-4.6 7.29-.67.56-1.53 1.01-1.91 1.01-.37-.01-2.44-1.59-4.59-3.51zm134.95 47.8c2-1.05 4.36-2.74 5.91-4.23 2.48-2.39 2.57-2.56 2.57-4.54 0-5.27-2.98-9.69-7.05-11.79-3.09-1.59-9.47-1.53-10.39.82-1.26 3.71-.62 9.37 1.78 15.54 1.45 3.76 2.7 5.95 3.38 5.95.26 0 1.97-.79 3.8-1.75zm-118.89 34.36c18.62-5.96 34.95-13.15 46.55-23.6 3.27-3.07 3.61-3.52 3.4-4.57-.48-2.41-4.01-10.74-9.09-21.5-8.27-17.48-8.16-17.2-7.61-20.13.82-4.36 2.23-7.61 3.3-7.61.61 0 14.79 15.95 14.79 16.63 0 .92-2.15.81-4.17-.22-1.1-.56-1.82-.72-2.08-.45-.68.67.68 4.45 4.03 11.21 5.38 10.88 6.74 16.8 5.35 23.34-1.23 5.8-3.77 10.12-9.26 15.81-15.94 13.42-26.47 20.84-46.55 28.5 0 0 1.42 8.56 3.75 13.29 3.56 7.22 10.83 6.3 17.43 3.19 15.78-8.94 17.83-18.23 30.3-31.54 8.88-9.4 16.5-16.03 35.1-23.74 11.46-4.75 22.4-6.49 22.4-7.39 0-.41-.45-2.88-1-5.48-2.08-9.89-2.37-17.93-.87-23.63 1.63-6.17 5.43-11.33 9.17-12.45 2.18-.66 5.98-.62 7.62.07.74.3 2.17 1.48 3.2 2.62 5.18 5.77 7.85 15.72 6.36 23.69-1.38 7.33-4.31 12.88-9.83 18.64l-3.25 3.39 1.13 1.64c3.94 5.69 19.43 5.51 34.99-1.51.15-.57-.52-8.82-1.47-18.35-1.76-17.57-2.11-20.46-7.6-63.97-7.24-57.41-8.58-68.02-10.52-83.31-1.12-8.86-2.04-17.65-2.04-17.65l3.46-7.82c2.49 8.34 11.83 28.64 11.83 28.64s-1.57-.83-2.5-1.85c-.94-1.01-2.15-1.84-2.15-1.84s-.35.98-.18 2.97c.13 1.64.52 6.31.86 10.38 1.64 19.94 1.98 22.94 13.98 122.47 1.93 16.05 1.92 15.78 1.45 21.78-.82 10.58-3.05 16.78-7.68 21.42-4.45 4.45-11.63 7.19-19.07 7.26-4.83.05-7.97-.77-11.03-2.87-2.62-1.81-6.12-6.06-8.49-10.32-.9-1.63-1.88-2.96-2.16-2.96-.74 0-13.61 2.9-19.96 5.71-9.92 4.38-22.67 13.09-26.49 15.65-5.36 3.58-12.12 10.25-21.11 20.82-12.04 14.17-18.11 19.93-22.69 21.54-2.71.95-6.48 1.01-9.67.15-3.26-.88-6.05-2.52-9.07-5.36-4.51-4.23-6.97-9.41-8.41-17.64-.34-1.99-.47-4.49-.47-4.49s-3.47.64-6.75 1.09c-8.63 1.19-19.36 1.2-24.86.02-10.45-2.24-17.94-8.53-21.96-18.45-2.15-5.31-3.22-11.22-3.6-19.76-.17-4.05-.4-5.85-.73-5.85-.51 0-1.44.68-6.5 4.78-4.18 3.39-5.87 4-10.51 3.77-5.1-.24-8.15-1.75-12.47-6.15-10.2-10.39-10.24-23.44-.14-47.32.36-.86.56-1.71.45-1.9-.12-.19-1.61-1.01-3.32-1.82-7.63-3.63-12.89-9.55-14.46-16.29-2.63-14.46 2.83-25.07 9.17-37.89-.71 12.74-9.73 29.28-2.42 39.99 2.48 3.68 10.01 3.92 15.07 2.75 2.99-.68 11.23-5.69 18.15-11.01C84.6 17.55 89.33 13.67 105.33-1.12c1.54-1.43 2.72-2.82 2.61-3.09-.16-.42-51.25-39.58-52.95-40.58l-2.22-1.83.06-5.75c.06-6.01.74-9.67 2.68-14.49l.87-2.16 6.83-3.86c33.67-18.99 75.92-34.78 123.27-46.07 3.67-.87 8.63-.69 10.76.39 3.65 1.86 5.1 4.21 5.08 8.26-.04 8.78-7.13 20.62-22.14 36.97-3.56 3.88-8.18 9.13-11.22 12.76l-1.37 1.62.22-1.64c.12-.9 1.06-3.31 2.08-5.34 2.91-5.78 4.48-7.72 19.65-24.4 4.96-5.45 6.88-8.35 6.88-10.39 0-2.2-.86-4.07-2.5-5.45l-1.38-1.16-7 .2c-19.92 1.68-29.01 7.52-46.38 12.68-5.67 1.66-36.99 12.79-50 18.36-11.64 4.99-31.24 15.1-31.24 16.12 0 .49-.3.28 41.31 29.19 5.65 3.93 13.39 9.34 17.21 12.02 3.82 2.69 7.19 4.98 7.49 5.09.31.12 1.9-.34 3.54-1.02 7.56-3.12 14.42-4.6 21.35-4.6 2.42 0 4.5-.16 4.62-.35.29-.47-1.21-6.56-4.21-17.11-6.1-21.46-6.9-31.25-3.27-39.76.83-1.96 1.53-2.41 2.24-1.44.97 1.3 9.71 19.63 9.48 19.87-.15.14-1.02-.04-1.94-.4-2.97-1.19-3.04-1.13-2.72 2.72.39 4.81 2.1 12.93 3.77 17.98 3.7 11.14 8.71 18 17.92 24.51 3.02 2.13 3.18 2.33 3.66 4.44.68 3.05.32 10.33-.56 11.2-.6.6-.84.5-2.74-1.09-7.45-6.24-17.42-9.44-26.95-8.64-4.17.34-9.65 1.82-9.65 2.59 0 .29 2.17 2.27 4.82 4.4 13.86 11.17 30.43 25.22 41.55 35.21 7.15 6.43 13.46 10.8 15.6 10.8.89 0 .94-.12.73-1.74-.12-.96-.42-3.97-.67-6.68-.7-7.85-2.3-21.85-4.31-37.6-1.03-8.03-2.32-18.2-2.88-22.61-1.39-10.88-2.88-24.09-3.51-30.93l-.52-5.66c.56-.93 3.23-5.74 3.23-5.74l12.63 28.02s-1.49-.61-2.91-1.76c-1.42-1.15-2.7-1.98-2.84-1.83-.37.37 2.13 21.86 5.64 48.38 1.4 10.57 3.64 29.03 4.15 34.25.56 5.72.85 6.17 4.2 6.57 4.16.49 11.29-2.14 15.85-5.85.97-.8 1.96-1.85 2.18-2.34.51-1.11-1.11-15.65-4.83-43.38-1.47-10.96-2.84-21.23-3.04-22.81-.21-1.58-1.21-9.07-2.23-16.64-1.01-7.58-2.12-15.9-2.46-18.5-2.36-17.93-3.34-24.81-4.8-33.64-2.04-12.39-2.1-13.65-2.1-13.65s2.8-9.01 3.16-9.01c1.18 0 14.1 27.79 14.1 27.79l-6.93-3.54s.06 11.78 7.64 67.31c5.04 36.95 7.59 56.86 7.59 59.21-.02 7-2.5 13.96-6.41 17.96-3.58 3.67-9.38 7.07-15.37 9-1.24.4-3.64.23-3.87.44-.25.23 1.32 18.18 1.29 26.31-.03 11.57-1.42 49.19-2.18 53.51-.92 5.17-3.56 14.14-4.13 14.14-.19 0-.45-4.02-.59-8.93-.24-8.68.34-64.53-1-76.97-.89-8.25-.65-7.63-3.38-8.7-7.13-2.81-13.46-7.38-23.91-17.28-18.39-17.41-23.91-22.22-32.67-28.48-1.78-1.27-3.4-2.32-3.59-2.32-.81 0-.21 1.05 2.05 3.64 4.32 4.91 7.03 8.82 9.32 13.42 2.86 5.76 3.9 9.75 3.9 15.09 0 10.43-2.98 14.76-14.39 20.95-4.65 2.52-9.2 4.34-19.22 7.67-17.56 5.84-24.2 8.64-31.08 13.07-5.73 3.7-11.92 9.5-13.61 12.75-1.22 2.34-.46 11.54 1.44 17.5 3.19 9.96 11.85 14.36 22.92 17.15 10.3 1.85 18.28-.17 29.85-3.59 2.11-6.13 9.17-18.06 11.55-23.65-1.09 6.8-5.5 16.34-6.75 21.63zm-2.67-31.08c-2.23-2.24-3.56-3.91-3.56-4.45 0-1.11 2.93-5.53 4.6-6.93.8-.68 1.5-.96 1.93-.78 5.19 3.26 7 6.03 9.9 8.96 0 1.21-2.26 4.06-5.38 8.3-2.06.07-3.32-.91-7.49-5.1zM38.25-3.61l-.61-1.8c-1.05-3.09-1.5-7.66-1.07-10.8 1.07-7.76 3.09-11.01 11-21.68 1.81-1.62 6.85-7.51 6-5.02l-3.03 4.8c-3.16 4.76-5.79 10.04-6.54 13.15-.64 2.68-.57 6.37.17 8.87 1.25 4.23 2.84 4.46 6.22.91 1.29-1.36 2.68-2.46 3.09-2.46.9 0 .91.12.13 2.73-2.84 6.24-11.29 18.28-15.36 11.3zm81.08 170.71c-2.69-1.14-3.68-6.1-2.45-12.18.75-3.68 1.23-4.89 1.94-4.89.31 0 .37 1.14.17 3.8-.3 4.12.08 6 1.53 7.6 1.08 1.2 1.96 1.17 3.15-.09 1.72-1.83 2.24-.09.87 2.86-1.46 3.12-2.87 3.91-5.21 2.9zm117.59-14.06c-2.35-5.82-4.99-8.46-9.57-9.56-1.3-.32-1.93-.77-2.62-1.88-1.21-1.96-1.46-4.52-.64-6.48.61-1.47.73-1.55 2-1.28 3.11.66 6.55 3.98 9.66 9.33 1.58 2.73 2.93 4.5 3 3.96.01-.08.27-2.7.57-5.81.61-6.22 1.86-9.8 3.74-10.65 2.05-.94 4.91.53 6.3 3.24.66 1.28.58 1.92-.39 3.15-.94 1.2-1.51 1.08-3.8-.82-1.4-1.17-2.38-1.23-3.3-.22-.54.61-.68 1.66-.68 5.45-.02 7.21-1.33 14.35-2.63 14.35-.29 0-1.03-1.25-1.64-2.78zM176.94 22.8s3.54-3.52 6.25-5.49c-2.21-.41-5.45-4.93-5.13-6.32.38-1.52 3.3-4.51 5.38-5.52 2.49-1.21 3.48-.68 3.48 1.88 0 1.23-.73 2.13-.73 2.13s.24-.9-.29-1.39c-1.8-.61-5.41 1.46-4.76 3.27.49 1.29 2.38 2.33 4.22 2.33.75 0 2.63-.36 4.19-.81 1.56-.44 3.43-1.34 3.43-1.34.19.74.35 2.31.32 2.75-4.31 4.04-14.56 9.36-14.56 9.36l-1.8-.85zm136.44 61.62c-.14-.65-.81-9.09-1.49-18.76-1.46-20.67-2.07-27.01-3.72-38.92-.68-4.86-1.79-12.81-2.46-17.67-.68-4.86-1.58-11.33-2.02-14.39-.43-3.05-1.45-10.35-2.27-16.23-2.65-19.08-3.43-21.86-3.43-21.86l2.61-11.91c5.33 8.91 14.89 28.95 14.89 28.95l-7.7-4.48s2.28 21.06 4.54 35.92c4.5 29.73 5.8 42.87 5.8 58.88 0 10.78-.2 12.21-2.54 17.88-1.52 3.69-1.89 4.12-2.21 2.59zm-47.92-43.54c-2.15-1.92-4.22-3.67-4.59-3.88-.57-.32-1.22.27-3.61 3.3-1.6 2.04-3.07 3.7-3.25 3.7-1.56 0-10.33-7.71-10.33-9.08 0-.93 4.71-8.58 5.29-8.58.89-.02 3.13 1.5 6.77 4.58 1.84 1.56 3.61 2.78 3.94 2.71.59-.11 1.82-1.6 4.43-5.38.8-1.16 1.64-1.92 2.12-1.92 1.03 0 3.72 2.28 7.63 6.45l3.16 3.38-1.74 2.93c-2.08 3.51-3.81 5.33-5.02 5.3-.53-.01-2.52-1.47-4.8-3.51zm-7.14-17.07c-.14-.71-.26-2.61-.26-4.24-5.09-27.97-6.9-60.45-15.22-110.2-.67-3.65-1.22-8.28-1.22-8.28l3.91-9.14 12.65 29.58-5.8-3.57c4.46 34.18 6.72 52.01 8.93 69.01 1.35 9.3 1.6 19.55.65 26.8-.62 4.72-2.39 11.32-3.04 11.32-.19 0-.46-.57-.6-1.28zm62.51-2.97c-2.19-2.04-2.56-3.33-2.55-8.9.01-4.81.5-8.25 1.9-13.35.66-2.41 1.08-.83.68 2.6-.83 7.29-.86 8.91-.17 11.27.37 1.28 1.12 2.85 1.66 3.48l.98 1.14 1.01-.95c.89-.82 1.05-.86 1.27-.27.54 1.41.25 3.79-.59 4.86-1.08 1.38-2.78 1.42-4.19.12zm-85.3-68.5c-2.7-1.64-3.94-6.96-3.01-12.93.54-3.43 1.61-7.19 2.05-7.19.18 0 .16 1.43-.04 3.18-.63 5.53.06 9.42 2.07 11.72.95 1.08 2.05.87 2.78-.54.77-1.5 1.57-1.4 1.76.22.22 1.9-.3 3.81-1.42 5.13-1.22 1.46-2.3 1.56-4.19.41zM74.36 5.54C71.84 4.2 70.89.75 71.51-4.78c.62-5.62 3.1-13.84 4.16-13.84.53 0 .11 4.14-.76 7.51-.99 3.82-.92 7.18.21 9.51C76.23.68 76.76.98 78.46.27c1.73-.71 2.21-.14 1.65 1.94-.78 2.87-3.56 4.49-5.75 3.33zm48.07-50.72c-1.4-1.78-2.24-5.01-2.22-8.59.02-3.66 1.04-8.74 2-9.93.56-.69.59-.45.3 2.52-.6 5.98-1.85 7.83.52 10.35.73.78 2.33 1.68 3.19.36.96-1.47 1.9-1.37 1.9.19 0 1.7-.88 3.66-2.25 5.02-1.43 1.41-2.38 1.43-3.44.08z" fill="#fff" id="prefix__svg_10" stroke-width=".41"/></g></symbol></defs></svg>