<svg height="20" width="20" version="1.1" id="prefix___x32_" xmlns="http://www.w3.org/2000/svg" viewBox="0 0 512 512" xml:space="preserve"><style>.prefix__st0{fill:#fff}</style><path class="prefix__st0" d="M181.158 225.346l64.826 50.011.902.517.404.226c5.606 3.122 13.027 1.467 17.975-3.979l.432-.414 79.452-94.002c4.524-5.07 4.599-12.369.198-16.282-4.411-3.922-11.644-2.981-16.15 2.088l-74.268 79.339-57.338-39.928c-5.362-3.95-13.403-2.116-17.947 4.082-4.534 6.18-3.867 14.401 1.514 18.342zM100.445 255.99c0-3.434.075-6.866.438-10.234H60.188c-.249 3.367-.315 6.8-.315 10.234 0 3.499.066 6.876.315 10.252h40.695c-.363-3.376-.438-6.8-.438-10.252zM172.42 124.797c3.847-2.436 7.774-4.731 11.762-6.772l1.552-.753-20.28-35.215a157.034 157.034 0 00-14.814 8.512l20.289 35.234 1.491-1.006zM82.071 165.44l35.23 20.279 8.527-14.795-35.244-20.289a157.37 157.37 0 00-8.513 14.805zM393.985 327.814c-2.116 3.998-4.341 7.91-6.844 11.701l-1.015 1.486 35.24 20.288a171.787 171.787 0 008.582-14.73l-35.15-20.355-.813 1.61zM118.044 327.748l-.814-1.543-35.159 20.28c2.502 5.07 5.398 10.008 8.512 14.805l35.244-20.288-1.026-1.486c-2.43-3.792-4.725-7.704-6.757-11.768zM172.42 387.127l-1.491-1.015-20.289 35.243c4.798 3.114 9.74 6.02 14.814 8.588l20.28-35.234-1.552-.752c-3.989-2.033-7.916-4.328-11.762-6.83zM326.214 117.216l14.81 8.588 20.284-35.234c-4.793-3.114-9.674-5.954-14.73-8.512l-20.364 35.158zM245.771 411.121v40.644c3.377.3 6.8.366 10.229.366 3.442 0 6.871-.066 10.238-.366v-41.067h-20.467v.423zM266.238 100.878V60.235c-3.367-.302-6.796-.367-10.238-.367-3.429 0-6.852.065-10.229.367v41.066h20.467v-.423zM326.214 394.774l20.364 35.168a179.775 179.775 0 0014.73-8.588l-20.284-35.243-14.81 8.663zM429.948 165.44c-2.572-5.079-5.465-10.007-8.582-14.805l-35.24 20.289 8.601 14.795 35.221-20.279zM451.826 245.757h-41.113v20.486h41.113c.254-3.376.311-6.8.311-10.252-.001-3.434-.057-6.867-.311-10.234z"/><path class="prefix__st0" d="M256 0C114.606.009.014 114.61.005 256 .014 397.39 114.606 511.99 256 512c141.394-.01 255.986-114.61 255.995-256C511.986 114.61 397.394.009 256 0zm0 478.966c-61.627-.01-117.268-24.926-157.661-65.305C57.964 373.254 33.043 317.617 33.038 256c.005-61.618 24.926-117.263 65.3-157.652C138.732 57.958 194.373 33.042 256 33.033c61.618.01 117.258 24.926 157.661 65.315 40.375 40.389 65.296 96.024 65.3 157.652-.005 61.617-24.926 117.254-65.3 157.661-40.403 40.38-96.043 65.296-157.661 65.305z"/></svg>