<svg xmlns="http://www.w3.org/2000/svg" width="40" height="40" viewBox="0 0 1080 1080"><g><path vector-effect="non-scaling-stroke" d="M540.444 707.73l10.661-1.11v1.11a126.597 126.597 0 0141.088 8.218l23.099 9.328-74.626 28.873-67.962-26.43 21.321-9.772a122.155 122.155 0 0146.197-10.217h.222zm517.049 188.563v2.221l-1.333 54.193L667.707 803.01l203.222-80.844 4.442 5.774c15.103 19.767 32.204 38.424 51.083 54.193 28.207 23.542 61.744 39.978 97.28 48.195a45.753 45.753 0 0122.654 14.66c11.993 14.213 13.992 32.87 11.327 50.638v.666zm-616.994-82.621l73.737 29.317-442.645 176.125h-1.555a43.976 43.976 0 01-35.091-11.104 43.087 43.087 0 01-11.55-24.431l-1.332-7.552 7.33-2.887c135.702-53.082 271.627-105.72 407.553-158.135l3.553-1.333zM23.84 896.293v-.888c-2.665-17.768-.888-36.425 11.106-50.639a45.753 45.753 0 0122.654-14.659c35.758-8.217 69.295-24.43 97.502-48.195 18.878-15.77 35.98-34.426 50.86-54.193l4.443-5.774 203.443 80.844-23.542 8.884c-117.491 45.309-234.76 91.061-352.029 136.592l-12.882 5.108-1.554-55.08v-2.222zm411.108-105.942L210.626 701.29l-.445-.444-112.16-44.42a163.466 163.466 0 01-46.641-24.43C38.498 622 27.171 608.451 25.394 591.571l-1.777-15.991 432.207 166.575 1.555.666 78.401 30.206 2.887 1.11 98.613 38.201 1.554.445 420.436 162.133-.889 7.551a43.976 43.976 0 01-11.105 24.875c-9.55 9.995-22.654 12.66-35.98 11.772h-1.554L545.997 834.549l-3.332-1.332-107.718-42.865zm568.798-193.893l1.11-.444 53.082-20.433-1.777 15.991a44.42 44.42 0 01-2.22 9.55 68.185 68.185 0 01-24.21 30.872 154.36 154.36 0 01-28.873 17.102c-5.552 2.665-11.105 4.664-16.88 7.107l-112.382 44.642-1.11.444-229.652 91.284-72.848-28.207 63.298-24.431c.666 0 1.555-.444 2.221-.889l370.24-142.588zm-448.42 79.956a151.028 151.028 0 0135.092-61.744c32.648-34.87 79.956-54.636 125.264-66.852 23.987-6.663 48.418-11.549 73.071-15.547l64.409-9.994c13.992-2.221 29.317-4.442 42.643-8.884 2.221-.889 12.66-4.664 13.326-7.552l.222-.222V117.611l85.509 60.633-3.776 402-358.914 138.37-4.442-3.999a95.503 95.503 0 00-28.873-17.101 140.811 140.811 0 00-35.313-8.44l-11.55-1.333 3.332-11.105zm-37.313 13.993a134.593 134.593 0 00-28.207 7.995 91.061 91.061 0 00-28.873 18.656l-4.442 4.443L86.916 579.134l-.222-400.89 85.508-60.633v388.23c0 5.775 5.109 9.773 10.661 9.773 24.226.96 48.39 3.109 72.405 6.44 43.31 5.997 87.285 15.548 128.151 30.65 59.967 22.21 122.822 59.968 142.144 125.043l3.332 10.66-10.883 2z" fill="#fff" fill-rule="evenodd"/><path vector-effect="non-scaling-stroke" d="M531.116 307.728v328.708l-17.768-21.1c-67.074-80.844-212.55-111.05-312.495-118.379l-8.884-.666V109.393l10.661.888c92.172 8.662 214.77 32.205 283.844 100.39 16.435 16.213 30.428 35.535 38.201 57.523 3.332 8.884 6.219 19.99 6.219 29.54v9.994zm19.323-7.995v-1.777c0-9.328 3.11-20.656 6.218-29.317a157.691 157.691 0 0137.757-57.746c69.074-68.185 192.117-91.95 284.51-100.612l10.661-.888V496.29l-8.884.666c-99.945 7.33-245.198 37.757-312.939 118.38l-17.323 20.655" fill="#fff" fill-rule="evenodd"/></g></svg>