<svg width="20" height="20" viewBox="0 0 24 24" xmlns="http://www.w3.org/2000/svg"><g fill="none" fill-rule="evenodd"><path d="M24 0v24H0V0h24zM12.593 23.258l-.011.002-.071.035-.02.004-.014-.004-.071-.035c-.01-.004-.019-.001-.024.005l-.004.01-.017.428.005.02.01.013.104.074.015.004.012-.004.104-.074.012-.016.004-.017-.017-.427c-.002-.01-.009-.017-.017-.018zm.265-.113l-.013.002-.185.093-.01.01-.003.011.018.43.005.012.008.007.201.093c.012.004.023 0 .029-.008l.004-.014-.034-.614c-.003-.012-.01-.02-.02-.022zm-.715.002a.023.023 0 00-.027.006l-.006.014-.034.614c0 .012.007.02.017.024l.015-.002.201-.093.01-.008.004-.011.017-.43-.003-.012-.01-.01-.184-.092z"/><path d="M12.702 2.195l7 2.625A2 2 0 0121 6.693v5.363a9 9 0 01-4.975 8.05l-3.354 1.676a1.5 1.5 0 01-1.342 0l-3.354-1.677A9 9 0 013 12.055V6.694A2 2 0 014.298 4.82l7-2.625a2 2 0 011.404 0zM12 14a1 1 0 100 2 1 1 0 000-2zm0-7a1 1 0 00-.993.883L11 8v4a1 1 0 001.993.117L13 12V8a1 1 0 00-1-1z" fill="#000"/></g></svg>